<mxfile host="Electron" agent="Mozilla/5.0 (X11; Linux x86_64) AppleWebKit/537.36 (KHTML, like Gecko) draw.io/27.0.9 Chrome/134.0.6998.205 Electron/35.4.0 Safari/537.36" version="27.0.9">
  <diagram name="Page-1" id="Hf3Ogf50ZDbYsYhXi6JI">
    <mxGraphModel dx="2276" dy="843" grid="1" gridSize="10" guides="1" tooltips="1" connect="1" arrows="1" fold="1" page="1" pageScale="1" pageWidth="850" pageHeight="1100" math="0" shadow="0">
      <root>
        <mxCell id="0" />
        <mxCell id="1" parent="0" />
        <mxCell id="wr4bBBM-DKwGVQBsYF7o-1" value="&lt;font style=&quot;color: rgb(0, 0, 0);&quot;&gt;Q1&lt;/font&gt;" style="html=1;shadow=0;dashed=0;align=center;verticalAlign=middle;shape=mxgraph.arrows2.arrow;dy=0;dx=10;notch=10;fillColor=#FFE6CC;" vertex="1" parent="1">
          <mxGeometry x="90" y="150" width="550" height="30" as="geometry" />
        </mxCell>
        <mxCell id="wr4bBBM-DKwGVQBsYF7o-2" value="&lt;font style=&quot;color: rgb(0, 0, 0);&quot;&gt;Q2&lt;/font&gt;" style="html=1;shadow=0;dashed=0;align=center;verticalAlign=middle;shape=mxgraph.arrows2.arrow;dy=0;dx=10;notch=10;fillColor=#FFE6CC;" vertex="1" parent="1">
          <mxGeometry x="640" y="150" width="550" height="30" as="geometry" />
        </mxCell>
        <mxCell id="wr4bBBM-DKwGVQBsYF7o-3" value="&lt;font style=&quot;color: rgb(0, 0, 0);&quot;&gt;Q3&lt;/font&gt;" style="html=1;shadow=0;dashed=0;align=center;verticalAlign=middle;shape=mxgraph.arrows2.arrow;dy=0;dx=10;notch=10;fillColor=#FFE6CC;" vertex="1" parent="1">
          <mxGeometry x="1190" y="150" width="550" height="30" as="geometry" />
        </mxCell>
        <mxCell id="wr4bBBM-DKwGVQBsYF7o-4" value="&lt;font style=&quot;color: rgb(0, 0, 0);&quot;&gt;Q4&lt;/font&gt;" style="html=1;shadow=0;dashed=0;align=center;verticalAlign=middle;shape=mxgraph.arrows2.arrow;dy=0;dx=10;notch=10;fillColor=#FFE6CC;" vertex="1" parent="1">
          <mxGeometry x="1740" y="150" width="550" height="30" as="geometry" />
        </mxCell>
        <mxCell id="wr4bBBM-DKwGVQBsYF7o-5" value="Инфраструктура" style="rounded=0;whiteSpace=wrap;html=1;fillColor=#7EA6E0;" vertex="1" parent="1">
          <mxGeometry x="-80" y="210" width="120" height="60" as="geometry" />
        </mxCell>
        <mxCell id="wr4bBBM-DKwGVQBsYF7o-6" value="Платформа" style="rounded=0;whiteSpace=wrap;html=1;fillColor=#7EA6E0;" vertex="1" parent="1">
          <mxGeometry x="-80" y="280" width="120" height="60" as="geometry" />
        </mxCell>
        <mxCell id="wr4bBBM-DKwGVQBsYF7o-7" value="Web-applicatiom" style="rounded=0;whiteSpace=wrap;html=1;fillColor=#7EA6E0;" vertex="1" parent="1">
          <mxGeometry x="-80" y="350" width="120" height="60" as="geometry" />
        </mxCell>
        <mxCell id="wr4bBBM-DKwGVQBsYF7o-8" value="Интеграция" style="rounded=0;whiteSpace=wrap;html=1;fillColor=#7EA6E0;" vertex="1" parent="1">
          <mxGeometry x="-80" y="420" width="120" height="60" as="geometry" />
        </mxCell>
        <mxCell id="wr4bBBM-DKwGVQBsYF7o-9" value="BigData" style="rounded=0;whiteSpace=wrap;html=1;fillColor=#7EA6E0;" vertex="1" parent="1">
          <mxGeometry x="-80" y="490" width="120" height="60" as="geometry" />
        </mxCell>
        <mxCell id="wr4bBBM-DKwGVQBsYF7o-12" value="Безопасность" style="rounded=0;whiteSpace=wrap;html=1;fillColor=#7EA6E0;" vertex="1" parent="1">
          <mxGeometry x="-80" y="560" width="120" height="60" as="geometry" />
        </mxCell>
        <mxCell id="wr4bBBM-DKwGVQBsYF7o-13" value="&lt;font color=&quot;#000000&quot;&gt;Разворачивание и настройка Haproxy&lt;/font&gt;" style="rounded=0;whiteSpace=wrap;html=1;fillColor=#CCFF99;" vertex="1" parent="1">
          <mxGeometry x="970" y="200" width="140" height="60" as="geometry" />
        </mxCell>
        <mxCell id="wr4bBBM-DKwGVQBsYF7o-14" value="&lt;font color=&quot;#000000&quot;&gt;Разворачивание и настройка FreeIpa&lt;/font&gt;" style="rounded=0;whiteSpace=wrap;html=1;fillColor=#CCFF99;" vertex="1" parent="1">
          <mxGeometry x="270" y="200" width="250" height="60" as="geometry" />
        </mxCell>
        <mxCell id="wr4bBBM-DKwGVQBsYF7o-15" value="&lt;font color=&quot;#000000&quot;&gt;Разворачивание DataLake House стэка&lt;/font&gt;" style="rounded=0;whiteSpace=wrap;html=1;fillColor=#CCFF99;" vertex="1" parent="1">
          <mxGeometry x="530" y="200" width="250" height="60" as="geometry" />
        </mxCell>
        <mxCell id="wr4bBBM-DKwGVQBsYF7o-16" value="&lt;font color=&quot;#000000&quot;&gt;Разворачивание и настройка Kafka&lt;/font&gt;" style="rounded=0;whiteSpace=wrap;html=1;fillColor=#CCFF99;" vertex="1" parent="1">
          <mxGeometry x="820" y="200" width="140" height="60" as="geometry" />
        </mxCell>
        <mxCell id="wr4bBBM-DKwGVQBsYF7o-17" value="&lt;font color=&quot;#000000&quot;&gt;Разработка микрофронтенда&lt;/font&gt;" style="rounded=0;whiteSpace=wrap;html=1;fillColor=#CCFF99;" vertex="1" parent="1">
          <mxGeometry x="100" y="345" width="1060" height="30" as="geometry" />
        </mxCell>
        <mxCell id="wr4bBBM-DKwGVQBsYF7o-18" value="&lt;font color=&quot;#000000&quot;&gt;Разработка Bckend for frontend&lt;/font&gt;" style="rounded=0;whiteSpace=wrap;html=1;fillColor=#CCFF99;" vertex="1" parent="1">
          <mxGeometry x="100" y="385" width="1060" height="30" as="geometry" />
        </mxCell>
        <mxCell id="wr4bBBM-DKwGVQBsYF7o-19" value="&lt;font color=&quot;#000000&quot;&gt;Обновление MS SQL до 2017&lt;/font&gt;" style="rounded=0;whiteSpace=wrap;html=1;fillColor=#CCFF99;" vertex="1" parent="1">
          <mxGeometry x="110" y="200" width="150" height="60" as="geometry" />
        </mxCell>
        <mxCell id="wr4bBBM-DKwGVQBsYF7o-20" value="&lt;font style=&quot;color: rgb(0, 0, 0);&quot;&gt;Разработка маршрутов и интеграций&lt;/font&gt;" style="rounded=0;whiteSpace=wrap;html=1;fillColor=#CCFF99;" vertex="1" parent="1">
          <mxGeometry x="95" y="420" width="690" height="60" as="geometry" />
        </mxCell>
        <mxCell id="wr4bBBM-DKwGVQBsYF7o-21" value="&lt;font color=&quot;#000000&quot;&gt;Настройка платформ&lt;/font&gt;" style="rounded=0;whiteSpace=wrap;html=1;fillColor=#CCFF99;" vertex="1" parent="1">
          <mxGeometry x="800" y="500" width="520" height="60" as="geometry" />
        </mxCell>
        <mxCell id="wr4bBBM-DKwGVQBsYF7o-22" value="&lt;font color=&quot;#000000&quot;&gt;Проработка политик безопасности, аудит&lt;/font&gt;" style="rounded=0;whiteSpace=wrap;html=1;fillColor=#CCFF99;" vertex="1" parent="1">
          <mxGeometry x="90" y="570" width="2180" height="60" as="geometry" />
        </mxCell>
        <mxCell id="wr4bBBM-DKwGVQBsYF7o-23" value="Аналитика" style="rounded=0;whiteSpace=wrap;html=1;fillColor=#7EA6E0;" vertex="1" parent="1">
          <mxGeometry x="-80" y="640" width="120" height="60" as="geometry" />
        </mxCell>
        <mxCell id="wr4bBBM-DKwGVQBsYF7o-24" value="&lt;font color=&quot;#000000&quot;&gt;Проработка переключения и разработка коннектора&lt;/font&gt;" style="rounded=0;whiteSpace=wrap;html=1;fillColor=#CCFF99;" vertex="1" parent="1">
          <mxGeometry x="525" y="270" width="260" height="60" as="geometry" />
        </mxCell>
        <mxCell id="wr4bBBM-DKwGVQBsYF7o-25" value="&lt;font color=&quot;#000000&quot;&gt;Анализ и сбор фактуры для миграции&lt;/font&gt;" style="rounded=0;whiteSpace=wrap;html=1;fillColor=#CCFF99;" vertex="1" parent="1">
          <mxGeometry x="250" y="640" width="600" height="60" as="geometry" />
        </mxCell>
        <mxCell id="wr4bBBM-DKwGVQBsYF7o-28" value="&lt;font color=&quot;#000000&quot;&gt;Сопровождение обновления&lt;/font&gt;" style="rounded=0;whiteSpace=wrap;html=1;fillColor=#CCFF99;" vertex="1" parent="1">
          <mxGeometry x="90" y="490" width="140" height="60" as="geometry" />
        </mxCell>
        <mxCell id="wr4bBBM-DKwGVQBsYF7o-29" value="&lt;font color=&quot;#000000&quot;&gt;Валидация данных после обновления&lt;/font&gt;" style="rounded=0;whiteSpace=wrap;html=1;fillColor=#CCFF99;" vertex="1" parent="1">
          <mxGeometry x="90" y="640" width="140" height="60" as="geometry" />
        </mxCell>
        <mxCell id="wr4bBBM-DKwGVQBsYF7o-30" value="&lt;font color=&quot;#000000&quot;&gt;Миграция данныз в DataLake House&lt;/font&gt;" style="rounded=0;whiteSpace=wrap;html=1;fillColor=#CCFF99;" vertex="1" parent="1">
          <mxGeometry x="1330" y="500" width="380" height="60" as="geometry" />
        </mxCell>
        <mxCell id="wr4bBBM-DKwGVQBsYF7o-31" value="&lt;font color=&quot;#000000&quot;&gt;Валидация данных при миграции&lt;/font&gt;" style="rounded=0;whiteSpace=wrap;html=1;fillColor=#CCFF99;" vertex="1" parent="1">
          <mxGeometry x="1330" y="640" width="370" height="60" as="geometry" />
        </mxCell>
        <mxCell id="wr4bBBM-DKwGVQBsYF7o-32" value="&lt;font color=&quot;#000000&quot;&gt;Настройка аналитики&lt;/font&gt;" style="rounded=0;whiteSpace=wrap;html=1;fillColor=#CCFF99;" vertex="1" parent="1">
          <mxGeometry x="1710" y="640" width="590" height="60" as="geometry" />
        </mxCell>
        <mxCell id="wr4bBBM-DKwGVQBsYF7o-33" value="&lt;font color=&quot;#000000&quot;&gt;Внедрение Frontend и BPF в экосистему&lt;/font&gt;" style="rounded=0;whiteSpace=wrap;html=1;fillColor=#CCFF99;" vertex="1" parent="1">
          <mxGeometry x="1170" y="345" width="410" height="60" as="geometry" />
        </mxCell>
        <mxCell id="wr4bBBM-DKwGVQBsYF7o-34" value="&lt;font color=&quot;#000000&quot;&gt;Интеграция в экосистему&lt;/font&gt;" style="rounded=0;whiteSpace=wrap;html=1;fillColor=#CCFF99;" vertex="1" parent="1">
          <mxGeometry x="1580" y="270" width="340" height="60" as="geometry" />
        </mxCell>
        <mxCell id="wr4bBBM-DKwGVQBsYF7o-35" value="&lt;font color=&quot;#000000&quot;&gt;Переключение интеграций&lt;/font&gt;" style="rounded=0;whiteSpace=wrap;html=1;fillColor=#CCFF99;" vertex="1" parent="1">
          <mxGeometry x="1590" y="415" width="330" height="60" as="geometry" />
        </mxCell>
        <mxCell id="wr4bBBM-DKwGVQBsYF7o-37" value="&lt;font color=&quot;#000000&quot;&gt;Вывод из эксплуатации Power Builder&lt;/font&gt;" style="rounded=0;whiteSpace=wrap;html=1;fillColor=#CCFF99;" vertex="1" parent="1">
          <mxGeometry x="2130" y="190" width="140" height="60" as="geometry" />
        </mxCell>
      </root>
    </mxGraphModel>
  </diagram>
</mxfile>
